<?xml version="1.0" encoding="UTF-8"?>
<svg id="Capa_1" xmlns="http://www.w3.org/2000/svg" version="1.1" viewBox="0 0 817.99 106.47">
  <!-- Generator: Adobe Illustrator 30.1.0, SVG Export Plug-In . SVG Version: 2.1.1 Build 136)  -->
  <defs>
    <style>
      .st0 {
        fill: #e7332e;
      }
    </style>
  </defs>
  <path class="st0" d="M197.23,65.98c7.56,3.59,16.12,1.67,21.55-4.77l10.2,8.43c-20.36,27.96-69.97,2.2-52.98-31,15.59-29.74,63.93-16.42,57.56,18.3-8.63.21-33.97.44-42.96.52.38,3.81,2.98,6.78,6.64,8.51ZM217.65,46.38c-2.36-14.9-25.36-14.01-27.69.11l27.69-.11Z"/>
  <path class="st0" d="M156.36,78.88c-11.53,4.33-28.54,3.39-39.3-2.83,1.29-4.47,2.64-8.44,4.4-12.74,8.33,5.11,17.8,6.94,27,4.69,2.11-.52,3.1-2.51,3.24-4.17.6-7.19-20.71-3.28-29.25-11.98-4.2-4.28-5.1-10.58-3.12-16.82,5.06-15.96,33.82-14.94,46.38-8.39l-4.52,12.29c-6.28-3.95-26.75-6.95-26.97,1.61-.2,7.7,24.08,2.83,30.94,13.83,5.68,9.11,1.13,20.77-8.8,24.5Z"/>
  <path class="st0" d="M239,22.15h14.32c0,3.61.14,5.82.1,9.47,4.98-6.37,14.48-10.03,22.85-9.47l-.17,13.5c-22.82,0-22.6,27.76-22.6,45.9h-14.5"/>
  <path class="st0" d="M415.35,22.24h14.32c0,3.61.14,5.82.1,9.47,4.98-6.37,14.48-10.03,22.85-9.47l-.17,13.5c-22.82,0-22.6,27.76-22.6,45.9h-14.5"/>
  <polyline class="st0" points="323.37 81.55 305.54 81.55 286.91 36.73 281.14 22.28 298.95 22.28"/>
  <polygon class="st0" points="325.75 75.68 317.82 56.5 331.64 22.15 348.87 22.15 325.75 75.68"/>
  <polyline class="st0" points="636.58 51.87 615.83 22.15 635.2 22.15 652.91 47.32 677.76 81.55 658.84 81.55 646.2 64.09 635.2 81.55 615.83 81.55"/>
  <polygon class="st0" points="659.02 48.77 649.86 36.13 658.65 22.08 678.05 22.15 659.02 48.77"/>
  <path class="st0" d="M373.58,66.02c7.56,3.59,16.12,1.67,21.55-4.77l10.2,8.43c-20.36,27.96-69.97,2.2-52.98-31,15.59-29.74,63.93-16.42,57.56,18.3-8.63.21-33.97.44-42.96.52.38,3.81,2.98,6.78,6.64,8.51ZM394.01,46.42c-2.36-14.9-25.36-14.01-27.69.11l27.69-.11Z"/>
  <circle class="st0" cx="465.82" cy="71.56" r="9.99"/>
  <path class="st0" d="M492.4,22.09v59.46h16.01v-32.66s0-12.18,10.75-12.18c8.32,0,13.56,4.81,13.56,15.97v28.88h13.88v-35.25c-.55-25.09-24.12-30.38-38.29-16.53v-7.62s-15.91-.13-15.91-.06Z"/>
  <path class="st0" d="M576.19,65.91c7.56,3.59,16.12,1.67,21.55-4.77l10.2,8.43c-20.36,27.96-69.97,2.2-52.98-31,15.59-29.74,63.93-16.42,57.56,18.3-8.63.21-33.97.44-42.96.52.38,3.81,2.98,6.78,6.64,8.51ZM596.62,46.31c-2.36-14.9-25.36-14.01-27.69.11l27.69-.11Z"/>
  <path class="st0" d="M704.29,65.91c7.56,3.59,16.12,1.67,21.55-4.77l10.2,8.43c-20.36,27.96-69.97,2.2-52.98-31,15.59-29.74,63.93-16.42,57.56,18.3-8.63.21-33.97.44-42.96.52.38,3.81,2.98,6.78,6.64,8.51ZM724.72,46.31c-2.36-14.9-25.36-14.01-27.69.11l27.69-.11Z"/>
  <polygon class="st0" points="79.77 45.97 79.72 45.97 79.75 45.92 42.1 16.45 32.87 28.24 63.41 52.15 32.87 76.06 42.1 87.86 79.77 58.37 79.75 58.35 79.77 58.35 79.77 45.97"/>
</svg>